<svg width="17" height="17" viewBox="0 0 17 17" fill="none" xmlns="http://www.w3.org/2000/svg">
<path d="M16.4516 8.24822L9.29136 0.832453L8.81142 0.335124C8.70206 0.222556 8.55418 0.159378 8.40003 0.159378C8.24589 0.159378 8.09801 0.222556 7.98865 0.335124L0.348454 8.24822C0.236401 8.36388 0.147843 8.50163 0.0880088 8.65334C0.0281744 8.80504 -0.00172452 8.96763 7.68091e-05 9.13151C0.00748908 9.80742 0.550438 10.347 1.20272 10.347H1.99027V16.601H14.8098V10.347H15.614C15.9309 10.347 16.2292 10.2183 16.4535 9.98599C16.5639 9.87196 16.6514 9.73636 16.7108 9.58705C16.7703 9.43774 16.8006 9.27768 16.8 9.11615C16.8 8.78972 16.6758 8.48057 16.4516 8.24822V8.24822ZM9.43775 15.2185H7.36232V11.3013H9.43775V15.2185ZM13.4756 8.96445V15.2185H10.6237V10.8405C10.6237 10.4161 10.292 10.0724 9.88249 10.0724H6.91758C6.50805 10.0724 6.17635 10.4161 6.17635 10.8405V15.2185H3.32448V8.96445H1.54554L8.40189 1.86551L8.82995 2.30908L15.2564 8.96445H13.4756Z" fill="white"/>
</svg>
