<svg width="136" height="40" viewBox="0 0 136 40" fill="none" xmlns="http://www.w3.org/2000/svg">
<path d="M18.3035 14.9471L19.0307 13.6781H14.7429L15.2193 14.5241L11.7339 26.2091L8.27363 14.5241L8.72497 13.6781H4.46228L5.16437 14.9471V30.9413L4.46228 32.1838H8.72497L8.02288 30.9413V23.3275L10.6557 32.1838H12.8372L15.445 23.3275V30.9413L14.7429 32.1838H19.0307L18.3035 30.9413V14.9471Z" fill="white"/>
<path d="M21.4694 13.6781C20.5918 13.6781 19.8646 14.4448 19.8646 15.3701V30.5183C19.8646 31.4436 20.5918 32.2103 21.4694 32.2103H26.71C27.5876 32.2103 28.3148 31.4436 28.3148 30.5183V15.3701C28.3148 14.4448 27.5876 13.6781 26.71 13.6781H21.4694ZM24.8043 29.17H23.375C23.024 29.17 22.7231 28.8792 22.7231 28.5091V17.3792C22.7231 17.0091 23.024 16.7183 23.375 16.7183H24.8043C25.1553 16.7183 25.4562 17.0091 25.4562 17.3792V28.5091C25.4562 28.8792 25.1553 29.17 24.8043 29.17Z" fill="white"/>
<path d="M34.7368 13.6781L35.1882 14.4976C35.3386 14.7884 35.4138 15.1321 35.3637 15.4758L34.0849 23.4068L32.8061 15.4758C32.7308 15.1321 32.8061 14.7884 32.9816 14.4976L33.4079 13.6781H29.1452L29.7219 14.7091C29.7971 14.8678 29.8723 15.0264 29.8974 15.2114L32.6556 32.1838H35.5392L38.2473 15.2114C38.2723 15.0264 38.3476 14.8678 38.4228 14.7091L38.9995 13.6781H34.7368Z" fill="white"/>
<path d="M43.4066 15.3965C43.4066 15.1057 43.4818 14.8149 43.6322 14.5505L44.1087 13.7045H39.846L40.3475 14.5505C40.4728 14.8149 40.5481 15.1057 40.5481 15.3965V30.4919C40.5481 30.7827 40.4728 31.0735 40.3475 31.3379L39.846 32.1838H44.1087L43.6322 31.3379C43.4818 31.0735 43.4066 30.7827 43.4066 30.4919V15.3965Z" fill="white"/>
<path d="M44.9637 13.6781L45.4903 14.6034C45.6157 14.8413 45.6658 15.0793 45.6658 15.3436V30.5448C45.6658 30.8091 45.6157 31.0471 45.4903 31.285L44.9637 32.1838H54.116V28.4298L53.2384 28.985C53.0378 29.1172 52.787 29.17 52.5614 29.17H48.5244V23.3275H51.1321C51.3578 23.3275 51.6085 23.4068 51.8091 23.539L52.6867 24.0678V19.5735L51.8091 20.1022C51.6085 20.2344 51.3578 20.3137 51.1321 20.3137H48.5244V16.7183H52.5614C52.787 16.7183 53.0378 16.7712 53.2384 16.9034L54.116 17.4586V13.6781H44.9637Z" fill="white"/>
<path d="M60.8803 13.6781V17.4586L61.7328 16.9298C61.9585 16.7712 62.2092 16.7183 62.46 16.7183H63.6636V30.5183C63.6636 30.8091 63.6134 31.0735 63.463 31.285L62.9615 32.1838H67.2493L66.7227 31.285C66.5973 31.0735 66.5221 30.8091 66.5221 30.5183V16.7183H67.7507C68.0015 16.7183 68.2522 16.7712 68.4779 16.9298L69.3305 17.4586V13.6781H60.8803Z" fill="white"/>
<path d="M79.3131 15.3965C79.3131 15.1057 79.3883 14.8149 79.5388 14.577L80.0152 13.6781H75.7525L76.2289 14.577C76.3794 14.8149 76.4546 15.1057 76.4546 15.3965V19.2563L73.7215 20.9218V15.3965C73.7215 15.1057 73.7967 14.8149 73.9471 14.577L74.4236 13.6781H70.1609L70.6624 14.577C70.7877 14.8149 70.8629 15.1057 70.8629 15.3965V30.4919C70.8629 30.7827 70.7877 31.0735 70.6624 31.3114L70.1609 32.1838H74.4236L73.9471 31.3114C73.7967 31.0735 73.7215 30.7827 73.7215 30.4919V24.385L76.4546 22.7459V30.4919C76.4546 30.7827 76.3794 31.0735 76.2289 31.3114L75.7525 32.1838H80.0152L79.5388 31.3114C79.3883 31.0735 79.3131 30.7827 79.3131 30.4919V15.3965Z" fill="white"/>
<path d="M80.8617 13.6781L81.3882 14.6034C81.5136 14.8413 81.5638 15.0793 81.5638 15.3436V30.5448C81.5638 30.8091 81.5136 31.0471 81.3882 31.285L80.8617 32.1838H90.0139V28.4298L89.1363 28.985C88.9357 29.1172 88.685 29.17 88.4593 29.17H84.4223V23.3275H87.03C87.2557 23.3275 87.5065 23.4068 87.7071 23.539L88.5847 24.0678V19.5735L87.7071 20.1022C87.5065 20.2344 87.2557 20.3137 87.03 20.3137H84.4223V16.7183H88.4593C88.685 16.7183 88.9357 16.7712 89.1363 16.9034L90.0139 17.4586V13.6781H80.8617Z" fill="white"/>
<path d="M100.005 15.3701C100.005 15.1057 100.08 14.8149 100.205 14.577L100.707 13.7045H90.8524L91.3539 14.577C91.4792 14.8149 91.5544 15.1057 91.5544 15.3701V30.5183C91.5544 30.7827 91.4792 31.0735 91.3539 31.3114L90.8524 32.1838H95.1151L94.6136 31.3114C94.4882 31.0735 94.413 30.7827 94.413 30.5183V24.385L97.1461 22.7459V30.5183C97.1461 30.7827 97.0709 31.0735 96.9455 31.3114L96.444 32.1838H100.707L100.205 31.3114C100.08 31.0735 100.005 30.7827 100.005 30.5183V15.3701ZM94.413 20.9218V16.7183H97.1461V19.2563L94.413 20.9218Z" fill="white"/>
<path d="M101.553 13.6781V17.4586L102.406 16.9298C102.631 16.7712 102.882 16.7183 103.133 16.7183H104.336V30.5183C104.336 30.8091 104.286 31.0735 104.136 31.285L103.634 32.1838H107.922L107.396 31.285C107.27 31.0735 107.195 30.8091 107.195 30.5183V16.7183H108.424C108.674 16.7183 108.925 16.7712 109.151 16.9298L110.003 17.4586V13.6781H101.553Z" fill="white"/>
<path d="M110.834 13.6781L111.36 14.6034C111.486 14.8413 111.536 15.0793 111.536 15.3436V30.5448C111.536 30.8091 111.486 31.0471 111.36 31.285L110.834 32.1838H119.986V28.4298L119.108 28.985C118.908 29.1172 118.657 29.17 118.431 29.17H114.394V23.3275H117.002C117.228 23.3275 117.479 23.4068 117.679 23.539L118.557 24.0678V19.5735L117.679 20.1022C117.479 20.2344 117.228 20.3137 117.002 20.3137H114.394V16.7183H118.431C118.657 16.7183 118.908 16.7712 119.108 16.9034L119.986 17.4586V13.6781H110.834Z" fill="white"/>
<path d="M130.177 31.285C130.052 31.0735 129.977 30.8091 129.977 30.5448V23.3011C129.977 22.4815 128.522 21.8206 127.745 21.8206C128.522 21.8206 129.977 21.1597 129.977 20.3402V15.185C129.977 14.3655 129.35 13.7045 128.547 13.7045H120.824L121.326 14.6034C121.476 14.8149 121.527 15.0793 121.527 15.3436V30.5448C121.527 30.8091 121.476 31.0735 121.326 31.285L120.824 32.2103H125.087L124.586 31.285C124.46 31.0735 124.385 30.8091 124.385 30.5448V23.3275H126.567C126.867 23.3275 127.118 23.5919 127.118 23.9091V30.5448C127.118 30.8091 127.043 31.0735 126.918 31.285L126.416 32.1838H130.679L130.177 31.285ZM124.385 20.3137V16.7183H126.567C126.867 16.7183 127.118 16.9563 127.118 17.2735V19.7321C127.118 20.0494 126.867 20.3137 126.567 20.3137H124.385Z" fill="white"/>
<path d="M71.5181 0.551724L71.9534 0H69.3865L69.6717 0.367816L67.5851 5.44827L65.5135 0.367816L65.7837 0H63.2318L63.6521 0.551724V7.50574L63.2318 8.04597H65.7837L65.3634 7.50574V4.1954L66.9396 8.04597H68.2456L69.8068 4.1954V7.50574L69.3865 8.04597H71.9534L71.5181 7.50574V0.551724Z" fill="white"/>
<path fill-rule="evenodd" clip-rule="evenodd" d="M58.871 5.5173L0 5.5173L0 3.67822L58.871 3.67822V5.5173Z" fill="white"/>
<path fill-rule="evenodd" clip-rule="evenodd" d="M135.185 40H0L0 38.1609H135.185V40Z" fill="white"/>
<path fill-rule="evenodd" clip-rule="evenodd" d="M135.185 5.5173L76.3142 5.5173V3.67822L135.185 3.67822V5.5173Z" fill="white"/>
</svg>
