<svg width="135" height="40" viewBox="0 0 135 40" fill="none" xmlns="http://www.w3.org/2000/svg">
<path d="M18.2785 14.9471L19.0046 13.6782H14.7227L15.1985 14.5241L11.7179 26.2092L8.26234 14.5241L8.71306 13.6782H4.45621L5.15734 14.9471V30.9414L4.45621 32.1839H8.71306L8.01193 30.9414V23.3276L10.6412 32.1839H12.8197L15.4239 23.3276V30.9414L14.7227 32.1839H19.0046L18.2785 30.9414V14.9471Z" fill="#FFB800"/>
<path d="M21.44 13.6782C20.5636 13.6782 19.8374 14.4448 19.8374 15.3701V30.5184C19.8374 31.4437 20.5636 32.2103 21.44 32.2103H26.6734C27.5498 32.2103 28.276 31.4437 28.276 30.5184V15.3701C28.276 14.4448 27.5498 13.6782 26.6734 13.6782H21.44ZM24.7704 29.1701H23.3431C22.9925 29.1701 22.692 28.8793 22.692 28.5092V17.3793C22.692 17.0092 22.9925 16.7184 23.3431 16.7184H24.7704C25.1209 16.7184 25.4214 17.0092 25.4214 17.3793V28.5092C25.4214 28.8793 25.1209 29.1701 24.7704 29.1701Z" fill="#FFB800"/>
<path d="M34.6893 13.6782L35.14 14.4977C35.2902 14.7885 35.3654 15.1322 35.3153 15.4759L34.0382 23.4069L32.7612 15.4759C32.686 15.1322 32.7612 14.7885 32.9364 14.4977L33.3621 13.6782H29.1053L29.6812 14.7092C29.7563 14.8678 29.8314 15.0264 29.8565 15.2115L32.6109 32.1839H35.4906L38.1949 15.2115C38.22 15.0264 38.2951 14.8678 38.3702 14.7092L38.9461 13.6782H34.6893Z" fill="#FFB800"/>
<path d="M43.3472 15.3965C43.3472 15.1057 43.4223 14.8149 43.5725 14.5506L44.0483 13.7046H39.7914L40.2922 14.5506C40.4174 14.8149 40.4926 15.1057 40.4926 15.3965V30.4919C40.4926 30.7827 40.4174 31.0735 40.2922 31.3379L39.7914 32.1839H44.0483L43.5725 31.3379C43.4223 31.0735 43.3472 30.7827 43.3472 30.4919V15.3965Z" fill="#FFB800"/>
<path d="M44.9022 13.6782L45.428 14.6034C45.5532 14.8414 45.6033 15.0793 45.6033 15.3437V30.5448C45.6033 30.8092 45.5532 31.0471 45.428 31.285L44.9022 32.1839H54.0419V28.4299L53.1655 28.985C52.9652 29.1172 52.7148 29.1701 52.4894 29.1701H48.4579V23.3276H51.0621C51.2875 23.3276 51.5379 23.4069 51.7382 23.5391L52.6146 24.0678V19.5736L51.7382 20.1023C51.5379 20.2345 51.2875 20.3138 51.0621 20.3138H48.4579V16.7184H52.4894C52.7148 16.7184 52.9652 16.7713 53.1655 16.9034L54.0419 17.4586V13.6782H44.9022Z" fill="#FFB800"/>
<path d="M60.7969 13.6782V17.4586L61.6483 16.9299C61.8737 16.7713 62.1241 16.7184 62.3745 16.7184H63.5764V30.5184C63.5764 30.8092 63.5263 31.0735 63.3761 31.285L62.8753 32.1839H67.1572L66.6313 31.285C66.5061 31.0735 66.431 30.8092 66.431 30.5184V16.7184H67.658C67.9084 16.7184 68.1588 16.7713 68.3842 16.9299L69.2355 17.4586V13.6782H60.7969Z" fill="#FFB800"/>
<path d="M79.2045 15.3965C79.2045 15.1057 79.2796 14.8149 79.4299 14.577L79.9056 13.6782H75.6488L76.1245 14.577C76.2748 14.8149 76.3499 15.1057 76.3499 15.3965V19.2563L73.6205 20.9218V15.3965C73.6205 15.1057 73.6956 14.8149 73.8459 14.577L74.3216 13.6782H70.0648L70.5656 14.577C70.6908 14.8149 70.7659 15.1057 70.7659 15.3965V30.4919C70.7659 30.7827 70.6908 31.0735 70.5656 31.3115L70.0648 32.1839H74.3216L73.8459 31.3115C73.6956 31.0735 73.6205 30.7827 73.6205 30.4919V24.385L76.3499 22.746V30.4919C76.3499 30.7827 76.2748 31.0735 76.1245 31.3115L75.6488 32.1839H79.9056L79.4299 31.3115C79.2796 31.0735 79.2045 30.7827 79.2045 30.4919V15.3965Z" fill="#FFB800"/>
<path d="M80.7509 13.6782L81.2768 14.6034C81.402 14.8414 81.4521 15.0793 81.4521 15.3437V30.5448C81.4521 30.8092 81.402 31.0471 81.2768 31.285L80.7509 32.1839H89.8907V28.4299L89.0142 28.985C88.8139 29.1172 88.5635 29.1701 88.3382 29.1701H84.3067V23.3276H86.9109C87.1362 23.3276 87.3866 23.4069 87.587 23.5391L88.4634 24.0678V19.5736L87.587 20.1023C87.3866 20.2345 87.1362 20.3138 86.9109 20.3138H84.3067V16.7184H88.3382C88.5635 16.7184 88.8139 16.7713 89.0142 16.9034L89.8907 17.4586V13.6782H80.7509Z" fill="#FFB800"/>
<path d="M99.8677 15.3701C99.8677 15.1057 99.9428 14.8149 100.068 14.577L100.569 13.7046H90.7279L91.2288 14.577C91.354 14.8149 91.4291 15.1057 91.4291 15.3701V30.5184C91.4291 30.7827 91.354 31.0735 91.2288 31.3115L90.7279 32.1839H94.9848L94.484 31.3115C94.3588 31.0735 94.2837 30.7827 94.2837 30.5184V24.385L97.0131 22.746V30.5184C97.0131 30.7827 96.938 31.0735 96.8128 31.3115L96.3119 32.1839H100.569L100.068 31.3115C99.9428 31.0735 99.8677 30.7827 99.8677 30.5184V15.3701ZM94.2837 20.9218V16.7184H97.0131V19.2563L94.2837 20.9218Z" fill="#FFB800"/>
<path d="M101.414 13.6782V17.4586L102.265 16.9299C102.491 16.7713 102.741 16.7184 102.992 16.7184H104.194V30.5184C104.194 30.8092 104.144 31.0735 103.993 31.285L103.492 32.1839H107.774L107.248 31.285C107.123 31.0735 107.048 30.8092 107.048 30.5184V16.7184H108.275C108.526 16.7184 108.776 16.7713 109.001 16.9299L109.853 17.4586V13.6782H101.414Z" fill="#FFB800"/>
<path d="M110.682 13.6782L111.208 14.6034C111.333 14.8414 111.383 15.0793 111.383 15.3437V30.5448C111.383 30.8092 111.333 31.0471 111.208 31.285L110.682 32.1839H119.822V28.4299L118.945 28.985C118.745 29.1172 118.495 29.1701 118.269 29.1701H114.238V23.3276H116.842C117.067 23.3276 117.318 23.4069 117.518 23.5391L118.394 24.0678V19.5736L117.518 20.1023C117.318 20.2345 117.067 20.3138 116.842 20.3138H114.238V16.7184H118.269C118.495 16.7184 118.745 16.7713 118.945 16.9034L119.822 17.4586V13.6782H110.682Z" fill="#FFB800"/>
<path d="M129.999 31.285C129.874 31.0735 129.799 30.8092 129.799 30.5448V23.3011C129.799 22.4816 128.346 21.8207 127.57 21.8207C128.346 21.8207 129.799 21.1598 129.799 20.3402V15.185C129.799 14.3655 129.173 13.7046 128.371 13.7046H120.659L121.16 14.6034C121.31 14.8149 121.36 15.0793 121.36 15.3437V30.5448C121.36 30.8092 121.31 31.0735 121.16 31.285L120.659 32.2103H124.916L124.415 31.285C124.29 31.0735 124.215 30.8092 124.215 30.5448V23.3276H126.393C126.694 23.3276 126.944 23.5919 126.944 23.9092V30.5448C126.944 30.8092 126.869 31.0735 126.744 31.285L126.243 32.1839H130.5L129.999 31.285ZM124.215 20.3138V16.7184H126.393C126.694 16.7184 126.944 16.9563 126.944 17.2736V19.7322C126.944 20.0494 126.694 20.3138 126.393 20.3138H124.215Z" fill="#FFB800"/>
<path d="M71.4201 0.551724L71.8548 0H69.2914L69.5762 0.367816L67.4925 5.44827L65.4238 0.367816L65.6936 0H63.1452L63.5649 0.551724V7.50574L63.1452 8.04597H65.6936L65.2739 7.50574V4.1954L66.8479 8.04597H68.1521L69.7111 4.1954V7.50574L69.2914 8.04597H71.8548L71.4201 7.50574V0.551724Z" fill="#FFB800"/>
<path fill-rule="evenodd" clip-rule="evenodd" d="M58.7903 5.51725L0 5.51725L0 3.67817L58.7903 3.67817V5.51725Z" fill="#FFB800"/>
<path fill-rule="evenodd" clip-rule="evenodd" d="M135 40H0L0 38.1609H135V40Z" fill="#FFB800"/>
<path fill-rule="evenodd" clip-rule="evenodd" d="M135 5.51725L76.2097 5.51725V3.67817L135 3.67817V5.51725Z" fill="#FFB800"/>
</svg>
