<svg width="15" height="19" viewBox="0 0 15 19" fill="none" xmlns="http://www.w3.org/2000/svg">
<path d="M9.28157 17.7417L9.69565 6.25292M5.96894 17.7417L5.55486 6.25292M10.9379 17.7417H4.31263M10.9379 6.25292H4.31263M2.65631 6.25292C2.65631 6.25292 2.24224 4.97639 2.86335 4.33813C3.48447 3.69987 4.72671 3.91262 4.72671 3.91262C4.72671 3.91262 4.72671 2.63609 5.55486 2.21059C6.38302 1.78508 7.62526 2.42334 7.62526 2.42334C7.62526 2.42334 8.45341 0.994907 9.69565 1.35957C10.9379 1.72423 10.9379 3.27436 10.9379 3.27436C10.9379 3.27436 11.9731 3.27436 12.5942 4.12538C13.2153 4.97639 12.5942 6.25292 12.5942 6.25292M12.0542 16.409L14.2505 6.25292H1L3.19627 16.409C3.33457 17.0477 3.40331 17.3672 3.63064 17.5544C3.85756 17.7417 4.17598 17.7417 4.81325 17.7417H10.4368C11.0741 17.7417 11.3925 17.7417 11.6195 17.5544C11.8468 17.3672 11.9155 17.0481 12.0542 16.409V16.409Z" stroke="#A9A9A9" stroke-linecap="round" stroke-linejoin="round"/>
</svg>
