<svg width="16" height="16" viewBox="0 0 16 16" fill="none" xmlns="http://www.w3.org/2000/svg">
<path d="M2.86465 15.2869C2.78665 15.7431 3.22465 16.0997 3.61065 15.8963L8.00065 13.578L12.3897 15.8963C12.7757 16.0997 13.2137 15.7431 13.1357 15.2879L12.3057 10.4274L15.8277 6.97871C16.1577 6.65604 15.9877 6.0662 15.5457 6.00249L10.6477 5.28728L8.46365 0.840832C8.42205 0.7507 8.35641 0.674549 8.27436 0.621225C8.19232 0.567902 8.09723 0.539597 8.00015 0.539597C7.90308 0.539597 7.80799 0.567902 7.72594 0.621225C7.6439 0.674549 7.57826 0.7507 7.53665 0.840832L5.35265 5.2883L0.454653 6.00352C0.0136534 6.06723 -0.157347 6.65707 0.171653 6.97974L3.69465 10.4284L2.86465 15.2889V15.2869ZM7.76965 12.4435L4.08365 14.3898L4.77765 10.3236C4.79391 10.23 4.78755 10.1337 4.75913 10.0432C4.73071 9.95272 4.6811 9.8708 4.61465 9.80462L1.70865 6.95816L5.76065 6.36626C5.84456 6.35324 5.92414 6.31951 5.99259 6.26797C6.06103 6.21643 6.1163 6.14861 6.15365 6.07031L7.99865 2.31133L9.84565 6.07031C9.88301 6.14861 9.93828 6.21643 10.0067 6.26797C10.0752 6.31951 10.1547 6.35324 10.2387 6.36626L14.2907 6.95713L11.3847 9.8036C11.3181 9.86987 11.2684 9.95197 11.2399 10.0426C11.2115 10.1333 11.2052 10.2298 11.2217 10.3236L11.9157 14.3898L8.22965 12.4435C8.15838 12.4057 8.07935 12.386 7.99915 12.386C7.91896 12.386 7.83993 12.4057 7.76865 12.4435H7.76965Z" fill="#A9A9A9"/>
</svg>
